# xmcd
#
# Track frame offsets: 
#        183
#        21530
#        39965
#        62013
#        80340
#        98055
#        115660
#        129553
#        130303
#        131053
#        131998
#
# Disc length: 1841 seconds
#
# Revision: 0
# Processed by: cddbd v1.5.2PL0 Copyright (c) Steve Scherf et al.
# Submitted via: ExactAudioCopy v0.99pb4
#
DISCID=99072f0b
DTITLE=Electrik - Love Buzz Harmony
DYEAR=1993
DGENRE=Rock
TTITLE0=Krush My Groove
TTITLE1=Good Thing
TTITLE2=She Loves
TTITLE3=Never Too Much
TTITLE4=Show Me Your Soul
TTITLE5=Blind Mans Holiday
TTITLE6=Nu Style
TTITLE7=no title 1
TTITLE8=no title 2
TTITLE9=no title 3
TTITLE10=Hidden
EXTD=
EXTT0=
EXTT1=
EXTT2=
EXTT3=
EXTT4=
EXTT5=
EXTT6=
EXTT7=
EXTT8=
EXTT9=
EXTT10=
PLAYORDER=
